HIERARCHY
ROOT hip
{
  OFFSET -0.00173652 90.8858 0.72379
  CHANNELS 6 Xposition Yposition Zposition Zrotation Xrotation Yrotation
  JOINT abdomen
  {
    OFFSET 0 7.2397 0
    CHANNELS 6 Xposition Yposition Zposition Zrotation Xrotation Yrotation
    JOINT chest
    {
      OFFSET 0 16.546 0
      CHANNELS 6 Xposition Yposition Zposition Zrotation Xrotation Yrotation
      JOINT neck
      {
        OFFSET 0 34.2149 0
        CHANNELS 6 Xposition Yposition Zposition Zrotation Xrotation Yrotation
        JOINT head
        {
          OFFSET 0 6.2923 0
          CHANNELS 6 Xposition Yposition Zposition Zrotation Xrotation Yrotation
          End Site
          {
            OFFSET 0 21.2161 0
          }
        }
      }
      JOINT lCollar
      {
        OFFSET 4.0639 26.6115 -1.1234
        CHANNELS 6 Xposition Yposition Zposition Zrotation Xrotation Yrotation
        JOINT lShldr
        {
          OFFSET 14.1772 0 0
          CHANNELS 6 Xposition Yposition Zposition Zrotation Xrotation Yrotation
          JOINT lForeArm
          {
            OFFSET 26.1234 0 0
            CHANNELS 6 Xposition Yposition Zposition Zrotation Xrotation Yrotation
            JOINT lHand
            {
              OFFSET 27.7188 0 0
              CHANNELS 6 Xposition Yposition Zposition Zrotation Xrotation Yrotation
              JOINT lThumb1
              {
                OFFSET 2.2979 -0.4685 1.8313
                CHANNELS 6 Xposition Yposition Zposition Zrotation Xrotation Yrotation
                JOINT lThumb2
                {
                  OFFSET 5.2953 0 0
                  CHANNELS 6 Xposition Yposition Zposition Zrotation Xrotation Yrotation
                  JOINT lThumb3
                  {
                    OFFSET 3.0181 0 0
                    CHANNELS 6 Xposition Yposition Zposition Zrotation Xrotation Yrotation
                    End Site
                    {
                      OFFSET 2.6294 0 0
                    }
                  }
                }
              }
              JOINT lIndex1
              {
                OFFSET 9.3793 0.2991 2.5924
                CHANNELS 6 Xposition Yposition Zposition Zrotation Xrotation Yrotation
                JOINT lIndex2
                {
                  OFFSET 4.3461 0 0
                  CHANNELS 6 Xposition Yposition Zposition Zrotation Xrotation Yrotation
                  JOINT lIndex3
                  {
                    OFFSET 2.1666 0 0
                    CHANNELS 6 Xposition Yposition Zposition Zrotation Xrotation Yrotation
                    End Site
                    {
                      OFFSET 2.2048 0 0
                    }
                  }
                }
              }
              JOINT lMid1
              {
                OFFSET 9.4769 0.8376 0.2947
                CHANNELS 6 Xposition Yposition Zposition Zrotation Xrotation Yrotation
                JOINT lMid2
                {
                  OFFSET 4.772 0 0
                  CHANNELS 6 Xposition Yposition Zposition Zrotation Xrotation Yrotation
                  JOINT lMid3
                  {
                    OFFSET 2.8722 0 0
                    CHANNELS 6 Xposition Yposition Zposition Zrotation Xrotation Yrotation
                    End Site
                    {
                      OFFSET 2.0959 0 0
                    }
                  }
                }
              }
              JOINT lRing1
              {
                OFFSET 8.6586 1.0176 -1.7016
                CHANNELS 6 Xposition Yposition Zposition Zrotation Xrotation Yrotation
                JOINT lRing2
                {
                  OFFSET 4.5461 0 0
                  CHANNELS 6 Xposition Yposition Zposition Zrotation Xrotation Yrotation
                  JOINT lRing3
                  {
                    OFFSET 2.506 0 0
                    CHANNELS 6 Xposition Yposition Zposition Zrotation Xrotation Yrotation
                    End Site
                    {
                      OFFSET 2.2023 0 0
                    }
                  }
                }
              }
              JOINT lPinky1
              {
                OFFSET 7.6901 0.6618 -3.9096
                CHANNELS 6 Xposition Yposition Zposition Zrotation Xrotation Yrotation
                JOINT lPinky2
                {
                  OFFSET 3.2119 0 0
                  CHANNELS 6 Xposition Yposition Zposition Zrotation Xrotation Yrotation
                  JOINT lPinky3
                  {
                    OFFSET 1.924 0 0
                    CHANNELS 6 Xposition Yposition Zposition Zrotation Xrotation Yrotation
                    End Site
                    {
                      OFFSET 1.7829 0 0
                    }
                  }
                }
              }
            }
          }
        }
      }
      JOINT rCollar
      {
        OFFSET -4.0677 26.6109 -1.1234
        CHANNELS 6 Xposition Yposition Zposition Zrotation Xrotation Yrotation
        JOINT rShldr
        {
          OFFSET -14.1772 0 0
          CHANNELS 6 Xposition Yposition Zposition Zrotation Xrotation Yrotation
          JOINT rForeArm
          {
            OFFSET -26.1234 0 0
            CHANNELS 6 Xposition Yposition Zposition Zrotation Xrotation Yrotation
            JOINT rHand
            {
              OFFSET -27.7188 0 0
              CHANNELS 6 Xposition Yposition Zposition Zrotation Xrotation Yrotation
              JOINT rThumb1
              {
                OFFSET -2.2979 -0.4684 1.8313
                CHANNELS 6 Xposition Yposition Zposition Zrotation Xrotation Yrotation
                JOINT rThumb2
                {
                  OFFSET -5.2953 0 0
                  CHANNELS 6 Xposition Yposition Zposition Zrotation Xrotation Yrotation
                  JOINT rThumb3
                  {
                    OFFSET -3.0181 0 0
                    CHANNELS 6 Xposition Yposition Zposition Zrotation Xrotation Yrotation
                    End Site
                    {
                      OFFSET -2.6294 0 0
                    }
                  }
                }
              }
              JOINT rIndex1
              {
                OFFSET -9.3793 0.2991 2.5924
                CHANNELS 6 Xposition Yposition Zposition Zrotation Xrotation Yrotation
                JOINT rIndex2
                {
                  OFFSET -4.3461 0 0
                  CHANNELS 6 Xposition Yposition Zposition Zrotation Xrotation Yrotation
                  JOINT rIndex3
                  {
                    OFFSET -2.1666 0 0
                    CHANNELS 6 Xposition Yposition Zposition Zrotation Xrotation Yrotation
                    End Site
                    {
                      OFFSET -2.2048 0 0
                    }
                  }
                }
              }
              JOINT rMid1
              {
                OFFSET -9.4769 0.8376 0.2947
                CHANNELS 6 Xposition Yposition Zposition Zrotation Xrotation Yrotation
                JOINT rMid2
                {
                  OFFSET -4.772 0 0
                  CHANNELS 6 Xposition Yposition Zposition Zrotation Xrotation Yrotation
                  JOINT rMid3
                  {
                    OFFSET -2.8722 0 0
                    CHANNELS 6 Xposition Yposition Zposition Zrotation Xrotation Yrotation
                    End Site
                    {
                      OFFSET -2.0959 0 0
                    }
                  }
                }
              }
              JOINT rRing1
              {
                OFFSET -8.6586 1.0176 -1.7016
                CHANNELS 6 Xposition Yposition Zposition Zrotation Xrotation Yrotation
                JOINT rRing2
                {
                  OFFSET -4.5461 0 0
                  CHANNELS 6 Xposition Yposition Zposition Zrotation Xrotation Yrotation
                  JOINT rRing3
                  {
                    OFFSET -2.506 0 0
                    CHANNELS 6 Xposition Yposition Zposition Zrotation Xrotation Yrotation
                    End Site
                    {
                      OFFSET -2.2023 0 0
                    }
                  }
                }
              }
              JOINT rPinky1
              {
                OFFSET -7.6901 0.6618 -3.9096
                CHANNELS 6 Xposition Yposition Zposition Zrotation Xrotation Yrotation
                JOINT rPinky2
                {
                  OFFSET -3.2119 0 0
                  CHANNELS 6 Xposition Yposition Zposition Zrotation Xrotation Yrotation
                  JOINT rPinky3
                  {
                    OFFSET -1.924 0 0
                    CHANNELS 6 Xposition Yposition Zposition Zrotation Xrotation Yrotation
                    End Site
                    {
                      OFFSET -1.7829 0 0
                    }
                  }
                }
              }
            }
          }
        }
      }
    }
  }
  JOINT lThigh
  {
    OFFSET 8.7379 -0.0029 0.0005
    CHANNELS 6 Xposition Yposition Zposition Zrotation Xrotation Yrotation
    JOINT lShin
    {
      OFFSET 0 -46.6676 0
      CHANNELS 6 Xposition Yposition Zposition Zrotation Xrotation Yrotation
      JOINT lFoot
      {
        OFFSET 0 -40.1476 0
        CHANNELS 6 Xposition Yposition Zposition Zrotation Xrotation Yrotation
        JOINT lToes
        {
          OFFSET 0 -8.8846 14.2294
          CHANNELS 6 Xposition Yposition Zposition Zrotation Xrotation Yrotation
          End Site
          {
            OFFSET 0 0 6.296
          }
        }
      }
    }
  }
  JOINT rThigh
  {
    OFFSET -8.7379 0.0029 -0.0005
    CHANNELS 6 Xposition Yposition Zposition Zrotation Xrotation Yrotation
    JOINT rShin
    {
      OFFSET 0 -46.6676 0
      CHANNELS 6 Xposition Yposition Zposition Zrotation Xrotation Yrotation
      JOINT rFoot
      {
        OFFSET 0 -40.1476 0
        CHANNELS 6 Xposition Yposition Zposition Zrotation Xrotation Yrotation
        JOINT rToes
        {
          OFFSET 0 -8.8846 14.2294
          CHANNELS 6 Xposition Yposition Zposition Zrotation Xrotation Yrotation
          End Site
          {
            OFFSET 0 0 6.296
          }
        }
      }
    }
  }
}
MOTION
Frames:	4
Frame Time:	0.0333333
0.0871899 90.9089 0.73992 -2.09977 -4.24083 -16.6642 2.22045e-16 7.2397 0 -0.170289 -1.50982 1.92959 0 16.546 0 -0.157207 -1.16031 3.8696 0 34.2149 -1.77636e-15 4.318 31.008 -0.146937 0 6.2923 0 2.56831 -4.62431 8.32912 4.0639 26.6115 -1.1234 12.1614 -4.48217 -3.53281 14.1772 -2.84217e-14 -3.55271e-15 -28.0702 13.4888 -76.2481 26.1234 0 7.10543e-15 -0.461841 -0.95594 -19.57 27.7188 0 -7.10543e-15 -156.045 -63.5986 -143.78 2.2979 -0.4685 1.8313 54.8859 65.607 -75.7795 5.2953 0 0 -8.70848 2.76102 2.42477 3.0181 0 2.84217e-14 11.6481 0.611013 2.85779 9.3793 0.2991 2.5924 -38.0891 -3.31663 6.64974 4.3461 7.10543e-15 0 -43.0272 -3.23743 8.8982 2.1666 0 0 -23.7386 -1.06851 4.64303 9.4769 0.8376 0.2947 -37.748 -6.09241 6.67377 4.772 1.42109e-14 0 -42.4082 -4.12447 10.8355 2.8722 -7.10543e-15 2.84217e-14 -17.356 -0.614987 6.23527 8.6586 1.0176 -1.7016 -38.5413 0.565088 6.63887 4.5461 1.42109e-14 -2.84217e-14 -43.6386 -2.47964 6.1882 2.506 0 0 -15.0998 -0.246849 3.38499 7.6901 0.6618 -3.9096 -35.7796 -10.4633 10.8479 3.2119 -1.42109e-14 0 -42.7533 -2.71731 11.1509 1.924 -7.10543e-15 5.68434e-14 -16.3304 -0.790016 7.55808 -4.0677 26.6109 -1.1234 -2.31961 -4.65765 -10.2934 -14.1772 0 0 4.55799 8.41338 105.213 -26.1234 0 3.55271e-15 0.416773 -0.891283 18.1239 -27.7188 0 0 -31.6957 -63.9165 -44.2914 -2.2979 -0.4684 1.8313 -55.004 65.3178 75.4387 -5.2953 2.84217e-14 0 9.69081 2.7701 -2.07064 -3.0181 0 7.10543e-15 -13.4379 0.507331 -2.20404 -9.3793 0.2991 2.5924 54.1737 -5.58399 -9.15872 -4.3461 7.10543e-15 0 59.0365 -6.12023 -11.2702 -2.1666 1.42109e-14 0 31.8036 -1.9164 -6.26813 -9.4769 0.8376 0.2947 53.724 -8.34461 -9.21327 -4.772 -7.10543e-15 -2.84217e-14 58.099 -7.57428 -13.7519 -2.8722 -1.42109e-14 1.42109e-14 25.3199 -1.42811 -8.33523 -8.6586 1.0176 -1.7016 54.7956 -1.72561 -9.11906 -4.5461 7.10543e-15 0 59.9556 -4.52194 -7.83091 -2.506 7.10543e-15 0 23.2969 -0.673153 -4.62994 -7.6901 0.6618 -3.9096 52.966 -12.9037 -9.35313 -3.2119 -7.10543e-15 -2.84217e-14 56.2138 -9.60227 -17.874 -1.924 0 2.84217e-14 24.0594 -1.78513 -10.2832 8.7379 -0.0029 0.0005 11.663 -18.0473 35.9567 -2.55351e-15 -46.6676 7.10543e-15 18.5023 40.3226 -2.32599 1.77636e-15 -40.1476 1.77636e-15 -11.8319 -15.0199 6.17714 2.66454e-15 -8.8846 14.2294 0.0001 4.96962e-17 -3.18055e-15 -8.7379 0.0029 -0.0005 -8.52282 -15.4413 -30.8791 -1.77636e-15 -46.6676 0 -17.2395 40.4614 3.4982 -3.55271e-15 -40.1476 -8.88178e-16 12.7841 -18.0075 -5.81337 -3.55271e-15 -8.8846 14.2294 -2.98177e-16 1.49089e-16 -6.36111e-15 
0.0936367 90.9031 0.734935 -2.05557 -4.20469 -16.6444 0 7.2397 0 -0.180472 -1.53266 1.9238 -2.22045e-16 16.546 0 -0.173121 -1.20627 3.85871 -1.33227e-15 34.2149 1.77636e-15 4.3163 31.0065 -0.153998 0 6.2923 1.42109e-14 2.57906 -4.66439 8.29036 4.0639 26.6115 -1.1234 12.1343 -4.48319 -3.53312 14.1772 0 0 -27.9969 13.5065 -76.2565 26.1234 0 3.55271e-15 -0.461003 -0.954758 -19.5432 27.7188 0 -3.55271e-15 -156.292 -63.3909 -144.105 2.2979 -0.4685 1.8313 54.8859 65.607 -75.7795 5.2953 1.42109e-14 0 -8.70848 2.76102 2.42477 3.0181 -1.42109e-14 -2.84217e-14 11.6481 0.611013 2.85779 9.3793 0.2991 2.5924 -38.0891 -3.31663 6.64974 4.3461 7.10543e-15 0 -43.0272 -3.23743 8.8982 2.1666 0 2.84217e-14 -23.7386 -1.06851 4.64303 9.4769 0.8376 0.2947 -37.748 -6.09241 6.67377 4.772 7.10543e-15 -2.84217e-14 -42.4082 -4.12447 10.8355 2.8722 7.10543e-15 -2.84217e-14 -17.356 -0.614987 6.23527 8.6586 1.0176 -1.7016 -38.5413 0.565088 6.63887 4.5461 0 -2.84217e-14 -43.6386 -2.47964 6.1882 2.506 0 0 -15.0998 -0.246849 3.38499 7.6901 0.6618 -3.9096 -35.7796 -10.4633 10.8479 3.2119 0 2.84217e-14 -42.7533 -2.71731 11.1509 1.924 7.10543e-15 -2.84217e-14 -16.3304 -0.790016 7.55808 -4.0677 26.6109 -1.1234 -2.30595 -4.65805 -10.2939 -14.1772 -2.84217e-14 3.55271e-15 4.47231 8.3897 105.243 -26.1234 0 5.32907e-15 0.414853 -0.888441 18.061 -27.7188 -2.84217e-14 0 -31.5195 -64.0304 -44.0184 -2.2979 -0.4684 1.8313 -55.004 65.3178 75.4387 -5.2953 0 0 9.69081 2.7701 -2.07064 -3.0181 2.84217e-14 0 -13.4379 0.507331 -2.20404 -9.3793 0.2991 2.5924 54.1737 -5.58399 -9.15872 -4.3461 0 0 59.0365 -6.12023 -11.2702 -2.1666 0 -1.42109e-14 31.8036 -1.9164 -6.26813 -9.4769 0.8376 0.2947 53.724 -8.34461 -9.21327 -4.772 7.10543e-15 -2.84217e-14 58.099 -7.57428 -13.7519 -2.8722 -2.13163e-14 1.42109e-14 25.3199 -1.42811 -8.33523 -8.6586 1.0176 -1.7016 54.7956 -1.72561 -9.11906 -4.5461 -7.10543e-15 0 59.9556 -4.52194 -7.83091 -2.506 0 -1.42109e-14 23.2969 -0.673153 -4.62994 -7.6901 0.6618 -3.9096 52.966 -12.9037 -9.35313 -3.2119 0 0 56.2138 -9.60227 -17.874 -1.924 -7.10543e-15 0 24.0594 -1.78513 -10.2832 8.7379 -0.0029 0.0005 11.5938 -18.1123 35.8333 1.33227e-15 -46.6676 7.10543e-15 18.488 40.3336 -2.21507 1.77636e-15 -40.1476 0 -11.8597 -15.0055 6.17992 -4.44089e-15 -8.8846 14.2294 0.0001 -9.93923e-17 -6.36111e-15 -8.7379 0.0029 -0.0005 -8.55971 -15.5057 -31.0199 1.77636e-15 -46.6676 0 -17.3697 40.4551 3.65821 -1.77636e-15 -40.1476 -8.88178e-16 12.8008 -18.0195 -5.80685 1.77636e-15 -8.8846 14.2294 9.93923e-17 0 -0 
0.0964663 90.8964 0.726629 -2.02603 -4.1673 -16.6213 1.11022e-16 7.2397 0 -0.186586 -1.55207 1.92176 -2.22045e-16 16.546 0 -0.181492 -1.24524 3.85486 0 34.2149 0 4.32366 30.9989 -0.167893 0 6.2923 0 2.59764 -4.67771 8.24027 4.0639 26.6115 -1.1234 12.1405 -4.48587 -3.53968 14.1772 -2.84217e-14 0 -27.9852 13.5181 -76.2634 26.1234 -2.84217e-14 3.55271e-15 -0.459914 -0.953238 -19.5089 27.7188 2.84217e-14 3.55271e-15 -156.612 -63.1537 -144.525 2.2979 -0.4685 1.8313 54.8859 65.607 -75.7795 5.2953 -1.42109e-14 0 -8.70848 2.76102 2.42477 3.0181 1.42109e-14 -1.42109e-14 11.6481 0.611013 2.85779 9.3793 0.2991 2.5924 -38.0891 -3.31663 6.64974 4.3461 7.10543e-15 2.84217e-14 -43.0272 -3.23743 8.8982 2.1666 7.10543e-15 0 -23.7386 -1.06851 4.64303 9.4769 0.8376 0.2947 -37.748 -6.09241 6.67377 4.772 -7.10543e-15 0 -42.4082 -4.12447 10.8355 2.8722 0 0 -17.356 -0.614987 6.23527 8.6586 1.0176 -1.7016 -38.5413 0.565088 6.63887 4.5461 2.13163e-14 0 -43.6386 -2.47964 6.1882 2.506 -3.55271e-15 2.84217e-14 -15.0998 -0.246849 3.38499 7.6901 0.6618 -3.9096 -35.7796 -10.4633 10.8479 3.2119 7.10543e-15 0 -42.7533 -2.71731 11.1509 1.924 -7.10543e-15 0 -16.3304 -0.790016 7.55808 -4.0677 26.6109 -1.1234 -2.26782 -4.66497 -10.3199 -14.1772 0 -3.55271e-15 4.3952 8.37809 105.276 -26.1234 -2.84217e-14 -1.77636e-15 0.413241 -0.886058 18.0082 -27.7188 2.84217e-14 0 -31.4755 -64.0982 -43.8659 -2.2979 -0.4684 1.8313 -55.004 65.3178 75.4387 -5.2953 0 0 9.69081 2.7701 -2.07064 -3.0181 0 7.10543e-15 -13.4379 0.507331 -2.20404 -9.3793 0.2991 2.5924 54.1737 -5.58399 -9.15872 -4.3461 -7.10543e-15 0 59.0365 -6.12023 -11.2702 -2.1666 7.10543e-15 -1.42109e-14 31.8036 -1.9164 -6.26813 -9.4769 0.8376 0.2947 53.724 -8.34461 -9.21327 -4.772 0 0 58.099 -7.57428 -13.7519 -2.8722 1.42109e-14 -1.42109e-14 25.3199 -1.42811 -8.33523 -8.6586 1.0176 -1.7016 54.7956 -1.72561 -9.11906 -4.5461 0 2.84217e-14 59.9556 -4.52194 -7.83091 -2.506 0 0 23.2969 -0.673153 -4.62994 -7.6901 0.6618 -3.9096 52.966 -12.9037 -9.35313 -3.2119 0 -2.84217e-14 56.2138 -9.60227 -17.874 -1.924 1.42109e-14 1.42109e-14 24.0594 -1.78513 -10.2832 8.7379 -0.0029 0.0005 11.5358 -18.1842 35.6713 8.88178e-16 -46.6676 0 18.4709 40.3534 -2.07259 0 -40.1476 0 -11.8999 -14.9832 6.18339 -3.55271e-15 -8.8846 14.2294 0.0001 -9.93923e-17 -6.36111e-15 -8.7379 0.0029 -0.0005 -8.58146 -15.5642 -31.1027 1.77636e-15 -46.6676 7.10543e-15 -17.4449 40.4644 3.73641 -3.55271e-15 -40.1476 8.88178e-16 12.8139 -18.0313 -5.80148 1.77636e-15 -8.8846 14.2294 -9.93923e-17 4.96962e-17 3.18055e-15 
0.0944088 90.8872 0.716629 -2.01579 -4.13217 -16.5915 0 7.2397 -1.77636e-15 -0.190118 -1.56593 1.92398 -2.22045e-16 16.546 0 -0.185843 -1.27303 3.85947 4.44089e-16 34.2149 0 4.34513 30.9841 -0.188347 1.77636e-15 6.2923 1.42109e-14 2.6317 -4.64385 8.18811 4.0639 26.6115 -1.1234 12.1888 -4.48834 -3.57451 14.1772 0 -3.55271e-15 -27.9455 13.5231 -76.2789 26.1234 0 0 -0.458915 -0.951826 -19.4772 27.7188 2.84217e-14 0 -156.995 -62.8741 -145.032 2.2979 -0.4685 1.8313 54.8859 65.607 -75.7795 5.2953 0 -1.42109e-14 -8.70848 2.76102 2.42477 3.0181 0 0 11.6481 0.611013 2.85779 9.3793 0.2991 2.5924 -38.0891 -3.31663 6.64974 4.3461 0 0 -43.0272 -3.23743 8.8982 2.1666 0 -2.84217e-14 -23.7386 -1.06851 4.64303 9.4769 0.8376 0.2947 -37.748 -6.09241 6.67377 4.772 -2.84217e-14 0 -42.4082 -4.12447 10.8355 2.8722 -7.10543e-15 2.84217e-14 -17.356 -0.614987 6.23527 8.6586 1.0176 -1.7016 -38.5413 0.565088 6.63887 4.5461 7.10543e-15 0 -43.6386 -2.47964 6.1882 2.506 0 2.84217e-14 -15.0998 -0.246849 3.38499 7.6901 0.6618 -3.9096 -35.7796 -10.4633 10.8479 3.2119 1.42109e-14 0 -42.7533 -2.71731 11.1509 1.924 7.10543e-15 0 -16.3304 -0.790016 7.55808 -4.0677 26.6109 -1.1234 -2.19343 -4.67851 -10.3814 -14.1772 -2.84217e-14 -3.55271e-15 4.34288 8.38917 105.309 -26.1234 0 1.77636e-15 0.412083 -0.884338 17.9702 -27.7188 0 0 -31.5058 -64.1054 -43.7916 -2.2979 -0.4684 1.8313 -55.004 65.3178 75.4387 -5.2953 2.84217e-14 -7.10543e-15 9.69081 2.7701 -2.07064 -3.0181 0 -7.10543e-15 -13.4379 0.507331 -2.20404 -9.3793 0.2991 2.5924 54.1737 -5.58399 -9.15872 -4.3461 -7.10543e-15 0 59.0365 -6.12023 -11.2702 -2.1666 0 -1.42109e-14 31.8036 -1.9164 -6.26813 -9.4769 0.8376 0.2947 53.724 -8.34461 -9.21327 -4.772 0 -2.84217e-14 58.099 -7.57428 -13.7519 -2.8722 7.10543e-15 -1.42109e-14 25.3199 -1.42811 -8.33523 -8.6586 1.0176 -1.7016 54.7956 -1.72561 -9.11906 -4.5461 0 0 59.9556 -4.52194 -7.83091 -2.506 -7.10543e-15 -1.42109e-14 23.2969 -0.673153 -4.62994 -7.6901 0.6618 -3.9096 52.966 -12.9037 -9.35313 -3.2119 7.10543e-15 -2.84217e-14 56.2138 -9.60227 -17.874 -1.924 -7.10543e-15 0 24.0594 -1.78513 -10.2832 8.7379 -0.0029 0.0005 11.4947 -18.259 35.4788 -5.55112e-16 -46.6676 7.10543e-15 18.457 40.3908 -1.91639 0 -40.1476 -1.77636e-15 -11.9515 -14.9637 6.18673 -8.88178e-16 -8.8846 14.2294 0.0001 1.49089e-16 9.54166e-15 -8.7379 0.0029 -0.0005 -8.58651 -15.6127 -31.1433 -3.55271e-15 -46.6676 7.10543e-15 -17.4743 40.4912 3.7475 -1.77636e-15 -40.1476 6.21725e-15 12.8234 -18.0467 -5.79579 3.55271e-15 -8.8846 14.2294 -9.93923e-17 -4.96962e-17 -0 
